<svg width="29" height="32" viewBox="0 0 29 32" fill="none" xmlns="http://www.w3.org/2000/svg">
<path d="M16.6267 11.7201L10.9067 17.4534L8.70666 15.2534C8.58713 15.1138 8.44004 15.0005 8.27462 14.9204C8.1092 14.8404 7.92903 14.7954 7.7454 14.7884C7.56177 14.7813 7.37867 14.8122 7.20756 14.8792C7.03646 14.9463 6.88107 15.0479 6.75113 15.1779C6.62119 15.3078 6.51951 15.4632 6.45248 15.6343C6.38545 15.8054 6.35451 15.9885 6.3616 16.1722C6.36869 16.3558 6.41366 16.536 6.4937 16.7014C6.57373 16.8668 6.68709 17.0139 6.82666 17.1334L9.96 20.2801C10.0846 20.4037 10.2323 20.5014 10.3948 20.5678C10.5572 20.6341 10.7312 20.6678 10.9067 20.6667C11.2565 20.6653 11.5916 20.5264 11.84 20.2801L18.5067 13.6134C18.6316 13.4895 18.7308 13.342 18.7985 13.1795C18.8662 13.017 18.9011 12.8428 18.9011 12.6667C18.9011 12.4907 18.8662 12.3165 18.7985 12.154C18.7308 11.9915 18.6316 11.844 18.5067 11.7201C18.2568 11.4717 17.9189 11.3324 17.5667 11.3324C17.2144 11.3324 16.8765 11.4717 16.6267 11.7201ZM13 2.66675C10.3629 2.66675 7.78505 3.44873 5.59239 4.91382C3.39974 6.37891 1.69077 8.46129 0.681602 10.8976C-0.327566 13.334 -0.591611 16.0149 -0.0771412 18.6013C0.437328 21.1877 1.70721 23.5635 3.57191 25.4282C5.43661 27.2929 7.81238 28.5628 10.3988 29.0772C12.9852 29.5917 15.6661 29.3276 18.1024 28.3185C20.5388 27.3093 22.6212 25.6003 24.0863 23.4077C25.5513 21.215 26.3333 18.6372 26.3333 16.0001C26.3333 14.2491 25.9885 12.5153 25.3184 10.8976C24.6483 9.27996 23.6662 7.81011 22.4281 6.57199C21.19 5.33388 19.7201 4.35175 18.1024 3.68169C16.4848 3.01162 14.751 2.66675 13 2.66675V2.66675ZM13 26.6667C10.8903 26.6667 8.82804 26.0412 7.07391 24.8691C5.31979 23.697 3.95262 22.0311 3.14528 20.082C2.33795 18.133 2.12671 15.9882 2.53829 13.9191C2.94986 11.85 3.96576 9.94937 5.45752 8.45761C6.94928 6.96585 8.8499 5.94995 10.919 5.53837C12.9882 5.1268 15.1329 5.33803 17.082 6.14537C19.031 6.9527 20.6969 8.31987 21.869 10.074C23.0411 11.8281 23.6667 13.8904 23.6667 16.0001C23.6667 18.8291 22.5429 21.5422 20.5425 23.5426C18.5421 25.5429 15.829 26.6667 13 26.6667V26.6667Z" fill="#6FCF97"/>
</svg>
